<svg width="28" height="28" viewBox="0 0 28 28" fill="none" xmlns="http://www.w3.org/2000/svg">
<path d="M14 25.6666C20.4433 25.6666 25.6666 20.4433 25.6666 14C25.6666 7.55666 20.4433 2.33331 14 2.33331C7.55666 2.33331 2.33331 7.55666 2.33331 14C2.33331 20.4433 7.55666 25.6666 14 25.6666Z" stroke="black" stroke-width="2" stroke-linecap="round" stroke-linejoin="round"/>
<path d="M14.385 20.3583C14.175 20.4283 13.8133 20.4283 13.6033 20.3583C11.7833 19.74 7.70001 17.1383 7.70001 12.7283C7.70001 10.78 9.26335 9.20502 11.2 9.20502C12.3433 9.20502 13.3583 9.75334 14 10.6167C14.63 9.76501 15.6567 9.20502 16.8 9.20502C18.7367 9.20502 20.3 10.78 20.3 12.7283C20.3 17.1383 16.2167 19.74 14.385 20.3583Z" stroke="black" stroke-width="2" stroke-linecap="round" stroke-linejoin="round"/>
</svg>
